<?xml version="1.0" standalone="no"?><!DOCTYPE svg PUBLIC "-//W3C//DTD SVG 1.1//EN" "http://www.w3.org/Graphics/SVG/1.1/DTD/svg11.dtd"><svg t="1608191116164" class="icon" viewBox="0 0 1024 1024" version="1.1" xmlns="http://www.w3.org/2000/svg" p-id="4976" xmlns:xlink="http://www.w3.org/1999/xlink" width="200" height="200"><defs><style type="text/css"></style></defs><path d="M267.932203 289.11665a47.856431 47.856431 0 0 1 6.444666 95.266201l-6.444666 0.44666H188.937188c-14.548355 0-25.906281 9.316052-28.267198 20.737787l-0.44666 4.338983v492.219342c0 11.868395 9.762712 22.460618 23.417747 24.693918l5.296111 0.382852 646.508475 0.382851c14.548355 0 25.906281-9.316052 28.267198-20.737786l0.44666-4.338983V410.289133c0-11.868395-9.762712-22.460618-23.417746-24.693919l-5.296112-0.382851h-73.698903a47.856431 47.856431 0 0 1-6.508475-95.266201l6.508475-0.446661h73.698903c64.957129 0 119.0668 48.494516 124.043868 111.282154l0.382852 9.507478v492.219342c0 64.063809-50.983051 115.621137-114.791625 120.406779l-9.571286 0.382852-646.572284-0.382852c-64.957129 0-119.002991-48.494516-124.043868-111.282153l-0.382851-9.507478V409.906281c0-64.063809 51.046859-115.621137 114.791625-120.40678l9.635094-0.382851h78.995015z" fill="#1296db" p-id="4977"></path><path d="M510.851446 15.314058c24.247258 0 44.283151 19.908275 47.40977 45.750748l0.44666 7.210368v527.377867l112.303091-98.265205 5.615155-4.338983a47.856431 47.856431 0 0 1 57.427716 76.315055l-191.680957 167.816551-5.742771 4.338983a47.856431 47.856431 0 0 1-57.74676-4.658026L291.860419 568.981057l-4.91326-5.104686a47.856431 47.856431 0 0 1 1.276171-62.532403l5.104686-4.849452a47.856431 47.856431 0 0 1 62.468594 1.276172l107.262214 96.22333v-525.782652c0-29.160518 21.439681-52.8335 47.85643-52.8335z" fill="#1296db" p-id="4978"></path></svg>