<?xml version="1.0" standalone="no"?><!DOCTYPE svg PUBLIC "-//W3C//DTD SVG 1.1//EN" "http://www.w3.org/Graphics/SVG/1.1/DTD/svg11.dtd"><svg t="1608190710461" class="icon" viewBox="0 0 1024 1024" version="1.1" xmlns="http://www.w3.org/2000/svg" p-id="4066" xmlns:xlink="http://www.w3.org/1999/xlink" width="200" height="200"><defs><style type="text/css"></style></defs><path d="M249.457778 757.475556c-57.6 0-92.871111-50.915556-92.871111-87.466667 0-13.511111 3.84-29.155556 11.804444-43.377778-3.84 5.973333-7.395556 11.946667-10.666667 17.635556-13.368889 22.613333-24.746667 41.955556-45.795555 41.955555H48.497778l-6.257778-8.96c-0.853333-1.28-89.457778-129.564444-0.142222-260.266666l11.946666-17.351112 34.702223 24.32-11.946667 17.493334c-60.302222 88.177778-21.191111 174.791111-5.688889 202.24h36.693333c3.555556-4.124444 9.244444-13.795556 13.653334-21.191111 19.768889-33.422222 52.764444-89.457778 120.462222-89.457778 28.302222 0 52.764444 10.24 70.826667 29.582222 14.791111 15.928889 23.893333 36.124444 28.728889 55.751111 0.284444 0.142222 0.426667 0.284444 0.711111 0.426667 5.973333 4.266667 11.093333 7.822222 15.36 10.24 66.986667 36.977778 252.302222 30.293333 282.453333-1.991111 4.693333-4.977778 9.386667-10.666667 14.222222-16.497778 25.884444-31.004444 61.297778-73.386667 127.715556-73.386667 27.448889 0 51.057778 10.524444 67.982222 30.293334 18.204444 21.333333 25.742222 49.493333 28.586667 71.537777 1.848889 2.275556 3.555556 4.408889 5.262222 6.257778 13.226667 6.684444 73.813333 0.426667 89.6-18.488889 3.697778-7.964444 11.946667-44.515556-0.995556-80.64-10.524444-29.297778-32.568889-50.915556-65.564444-64.284444-63.146667-25.6-171.377778-34.702222-172.515556-34.844445l-7.964444-0.711111-13.084445-13.653333c-39.68-42.24-113.635556-120.746667-280.746666-120.746667-158.862222 0-200.533333 52.48-230.826667 90.737778-1.422222 1.706667-2.702222 3.413333-4.124444 5.12h431.36v42.666667H180.622222l-4.408889-2.133334c-3.555556-1.706667-21.617778-11.377778-25.457777-30.008888-2.275556-10.808889 0.853333-21.76 8.675555-31.004445 2.986667-3.555556 6.115556-7.395556 9.244445-11.52 33.706667-42.524444 84.764444-106.808889 263.822222-106.808889 185.173333 0 270.364444 90.453333 311.324444 133.973334l1.848889 1.991111c27.448889 2.702222 117.475556 12.942222 176.782222 36.977777 61.297778 24.888889 84.622222 68.835556 93.44 101.404445 12.942222 47.928889 1.422222 95.431111-8.533333 108.515555-19.911111 26.026667-64.568889 36.835556-96.711111 38.115556-13.653333 0.568889-25.315556-0.426667-34.702222-2.986667-9.244444 29.866667-35.271111 69.262222-89.315556 69.262223-61.155556 0-94.151111-45.795556-94.151111-88.888889 0-41.671111 28.017778-86.471111 89.6-86.471111 6.826667 0 13.226667 0.568889 19.2 1.706666-5.688889-2.275556-12.088889-3.413333-19.2-3.413333-46.791111 0-71.537778 29.582222-95.573333 58.311111-5.404444 6.542222-10.666667 12.8-15.928889 18.346667-32.995556 35.271111-116.337778 39.964444-163.413334 40.106666-50.346667-0.142222-120.746667-7.111111-161.848888-25.884444-4.977778 44.942222-35.84 87.466667-95.857778 87.466667z m-3.84-132.124445c-38.257778 0-46.791111 33.137778-46.791111 44.8 0 15.786667 19.2 44.657778 50.631111 44.657778 47.786667 0 53.76-40.96 54.471111-53.475556 0.284444-4.408889 0.142222-10.666667-0.711111-17.493333-15.502222-9.955556-33.564444-18.488889-57.6-18.488889zM782.222222 624.071111c-45.084444 0-47.36 36.551111-47.36 43.804445 0 15.928889 10.808889 46.08 51.911111 46.08 43.662222 0 50.915556-47.502222 50.915556-47.928889 0.284444-1.991111 0.426667-5.546667 0.284444-10.097778-13.368889-16.071111-29.44-31.857778-55.751111-31.857778z m101.262222 20.906667z m-641.564444-69.262222c-29.155556 0-48.782222 16.924444-64 37.262222 14.648889-17.493333 36.977778-30.435556 67.84-30.435556 10.666667 0 20.337778 1.137778 29.297778 3.128889-9.102222-6.684444-19.911111-9.955556-33.137778-9.955555z" fill="#1296db" p-id="4067"></path></svg>